:FULLY-SPECIFIED
:FORCE-ALL-JOINTS-BE-3DOF
:DEGREES
883
root 3.85195 16.5305 30.5312 -10.8246 23.6768 359.35
lfemur -15.8095 19.9983 -19.0116
ltibia 40.4913 0 0
lfoot -12.9326 0.0690648 0
ltoes -1.37978 0 0
rfemur -80.7132 -24.4467 36.5168
rtibia 101.126 0 0
rfoot 19.264 26.205 0
rtoes -8.14353 0 0
lowerback 15.0059 -4.01209 -6.64789
upperback 4.97444 -6.28636 -2.38034
thorax -2.64296 -3.11384 2.26165
lowerneck -7.71871 -3.24517 1.71638
upperneck 4.65939 -4.84264 4.94114
head 2.93726 -2.18998 1.06474
lclavicle -3.12092e-14 -4.77083e-15 0
lhumerus -33.0312 -40.5423 88.3441
lradius 60.5977 0 0
lwrist 19.6497 0 0
lhand 25.8347 11.8689 0
lfingers 7.12502 0 0
lthumb 49.9264 33.1302 0
rclavicle -3.12092e-14 -4.77083e-15 0
rhumerus -49.2556 -29.6742 -46.9493
rradius 72.2992 0 0
rwrist -23.3678 0 0
rhand -47.7649 -54.4874 0
rfingers 7.12502 0 0
rthumb -20.4424 -803.431 0
884
root 3.83986 16.5227 30.5917 -11.494 25.6103 -0.698952
lfemur -17.7774 21.8919 -20.7262
ltibia 44.1611 -0 0
lfoot -14.147 0.378685 0.0212415
ltoes -1.1042 0 0
rfemur -83.3794 -26.1122 38.0236
rtibia 104.781 -0 0
rfoot 20.2756 26.3601 0.220596
rtoes -6.50865 0 0
lowerback 15.8881 -4.29013 -7.086
upperback 5.23856 -6.70287 -2.54101
thorax -2.84222 -3.31872 2.3965
lowerneck -8.34099 -3.67268 1.71482
upperneck 5.04061 -5.43825 5.35468
head 3.18711 -2.4724 1.16981
lclavicle -2.98301e-14 -3.48346e-15 0
lhumerus -37.1644 -40.4372 94.9021
lradius 64.6277 -0 0
lwrist 20.9784 0 0
lhand 27.9672 12.9654 -0.0123937
lfingers 7.12502 0 0
lthumb 53.5452 35.8384 0.00325605
rclavicle -2.98301e-14 -3.48346e-15 0
rhumerus -51.9531 -29.9132 -52.6394
rradius 77.8666 -0 0
rwrist -24.8096 0 0
rhand -48.9534 -56.2215 0.828867
rfingers 7.12502 0 0
rthumb -20.1259 -85.7253 0.805826
885
root 3.82776 16.515 30.6522 -11.9538 27.014 -0.735402
lfemur -19.2741 23.2983 -21.9915
ltibia 46.7908 -0 0
lfoot -15.0558 0.71099 0.0447505
ltoes -0.939789 0 0
rfemur -85.0908 -27.319 39.1204
rtibia 107.095 -0 0
rfoot 21.0021 26.4123 0.381074
rtoes -5.15234 0 0
lowerback 16.5074 -4.49376 -7.40119
upperback 5.42166 -7.00711 -2.65601
thorax -2.98581 -3.46823 2.49411
lowerneck -8.79251 -3.99481 1.7008
upperneck 5.30761 -5.88425 5.65823
head 3.36623 -2.68489 1.24869
lclavicle -2.84511e-14 -2.19609e-15 0
lhumerus -40.2261 -40.2161 99.0764
lradius 67.3404 -0 0
lwrist 21.9022 0 0
lhand 29.5293 13.778 -0.0264405
lfingers 7.12502 0 0
lthumb 56.0617 37.7609 0.00503411
rclavicle -2.84511e-14 -2.19609e-15 0
rhumerus -53.7886 -29.9522 -56.7061
rradius 81.6496 -0 0
rwrist -25.8716 0 0
rhand -49.7657 -57.3889 1.41549
rfingers 7.12502 0 0
rthumb -19.8632 -87.1976 1.34593
886
root 3.81567 16.5072 30.7127 -12.2122 27.9183 -0.759114
lfemur -20.2921 24.2517 -22.8127
ltibia 48.483 -0 0
lfoot -15.6671 1.05395 0.0696588
ltoes -0.889782 0 0
rfemur -86.0811 -28.1323 39.8499
rtibia 108.495 -0 0
rfoot 21.4649 26.3959 0.487966
rtoes -4.10905 0 0
lowerback 16.8815 -4.62684 -7.59946
upperback 5.52936 -7.20474 -2.7276
thorax -3.07576 -3.5651 2.5564
lowerneck -9.07934 -4.21116 1.67804
upperneck 5.46411 -6.18118 5.85493
head 3.47672 -2.82726 1.30176
lclavicle -2.7072e-14 -9.08726e-16 0
lhumerus -42.2103 -40.0654 101.535
lradius 68.9758 -0 0
lwrist 22.4478 0 0
lhand 30.5578 14.3152 -0.0416304
lfingers 7.12502 0 0
lthumb 57.6346 38.9634 0.00538699
rclavicle -2.7072e-14 -9.08726e-16 0
rhumerus -54.8697 -29.944 -59.3404
rradius 84.0257 -0 0
rwrist -26.5838 0 0
rhand -50.2661 -58.0857 1.80489
rfingers 7.12502 0 0
rthumb -19.6815 -88.0496 1.69318
887
root 3.80358 16.4994 30.7732 -12.2852 28.3691 -0.770449
lfemur -20.8534 24.7983 -23.2171
ltibia 49.3538 -0 0
lfoot -16.002 1.39664 0.0951715
ltoes -0.947342 0 0
rfemur -86.5016 -28.6092 40.2536
rtibia 109.226 -0 0
rfoot 21.6898 26.3314 0.54757
rtoes -3.38297 0 0
lowerback 17.0337 -4.69528 -7.6906
upperback 5.56887 -7.30455 -2.75959
thorax -3.11613 -3.61367 2.58613
lowerneck -9.21419 -4.32747 1.6492
upperneck 5.51872 -6.33782 5.95253
head 3.5237 -2.90332 1.33069
lclavicle -2.56929e-14 3.78642e-16 0
lhumerus -43.1871 -40.0448 102.709
lradius 69.725 -0 0
lwrist 22.6519 0 0
lhand 31.1047 14.5978 -0.0574599
lfingers 7.12502 0 0
lthumb 58.408 39.5262 0.00445285
rclavicle -2.56929e-14 3.78642e-16 0
rhumerus -55.2979 -29.9661 -60.7514
rradius 85.2833 -0 0
rwrist -26.9812 0 0
rhand -50.503 -58.3866 2.03194
rfingers 7.12502 0 0
rthumb -19.5888 -88.412 1.89463
